<svg width="46" height="47" viewBox="0 0 46 47" fill="none" xmlns="http://www.w3.org/2000/svg">
<circle cx="22.6919" cy="23.5293" r="21.5847" fill="#1A1A1A" stroke="#C9AC8C" stroke-width="2"/>
<path d="M33.3087 20.5183C33.171 20.1148 32.807 19.8299 32.3822 19.7968L26.2972 19.3132L23.664 13.4844C23.4921 13.1012 23.1111 12.8557 22.6916 12.8557C22.2721 12.8557 21.8911 13.1012 21.7193 13.4833L19.0861 19.3132L13.0011 19.7968C12.5837 19.8299 12.224 20.1042 12.0821 20.498C11.9401 20.8919 12.0404 21.3327 12.3404 21.6252L16.8371 26.0088L15.2468 32.8954C15.1486 33.3213 15.3204 33.7642 15.6801 34.0129C15.8637 34.1389 16.075 34.2029 16.2875 34.2029C16.4935 34.2029 16.7005 34.1432 16.8798 34.0236L22.6916 30.1491L28.5034 34.0236C28.8748 34.2712 29.3626 34.2616 29.7255 33.998C30.0863 33.7344 30.2453 33.2722 30.1226 32.8431L28.1704 26.012L33.0119 21.655C33.3289 21.369 33.4453 20.9228 33.3087 20.5183Z" fill="#C9AC8C"/>
</svg>
