<svg width="173" height="201" viewBox="0 0 173 201" fill="none" xmlns="http://www.w3.org/2000/svg">
<g id="Group">
<path id="Vector" d="M0.0426025 126.286C9.08684 135.462 18.7053 144.035 28.6971 152.176C24.1319 164.229 20.0835 176.484 16.8103 188.969C29.2139 192.392 41.8471 194.981 54.5377 197.052C56.605 209.767 59.1891 222.424 62.6058 234.852C75.0667 231.601 87.298 227.516 99.3283 222.942C107.454 232.924 116.039 242.59 125.169 251.651C134.328 242.59 142.884 232.953 151.01 222.942C163.04 227.516 175.271 231.572 187.732 234.852C191.149 222.424 193.733 209.767 195.8 197.052C208.491 194.981 221.124 192.392 233.528 188.969C230.283 176.484 226.206 164.229 221.641 152.176C231.604 144.035 241.251 135.434 250.295 126.286C241.251 117.109 231.633 108.537 221.641 100.396C226.206 88.3426 230.254 76.088 233.528 63.6032C221.124 60.18 208.491 57.591 195.8 55.5198C193.733 42.8049 191.149 30.1475 187.732 17.7203C175.271 20.9709 163.04 25.0558 151.01 29.6297C142.884 19.6477 134.299 9.98205 125.169 0.920532C116.01 9.98205 107.454 19.6189 99.3283 29.6297C87.298 25.0558 75.0667 20.9997 62.6058 17.7203C59.1891 30.1475 56.605 42.8049 54.5377 55.5198C41.8471 57.591 29.2139 60.18 16.8103 63.6032C20.0548 76.088 24.1319 88.3426 28.6971 100.396C18.7053 108.537 9.08684 117.109 0.0426025 126.286ZM86.7525 136.584C86.6663 134.341 87.298 132.212 89.2217 130.313C92.0355 127.552 95.6819 127.35 99.4144 127.35C103.176 127.35 106.765 127.494 109.607 130.313C109.636 130.342 109.693 130.4 109.722 130.428C109.722 130.486 109.693 130.515 109.693 130.572C108.631 134.427 105.587 136.325 102.343 138.224C99.1273 140.094 95.8829 141.762 92.0355 140.784C89.394 140.123 87.7861 138.569 86.7525 136.584ZM86.7525 115.959C87.7861 113.974 89.394 112.449 92.0068 111.759C95.8254 110.781 99.0986 112.42 102.314 114.319C105.559 116.218 108.602 118.116 109.665 121.971C109.665 122.028 109.693 122.057 109.693 122.115C109.665 122.143 109.607 122.201 109.578 122.23C106.736 125.049 103.147 125.164 99.3857 125.193C95.6532 125.193 92.0068 125.02 89.193 122.23C87.298 120.331 86.6663 118.202 86.7525 115.959ZM97.0313 98.0945C98.9263 96.9151 101.08 96.3685 103.692 97.0877C107.511 98.152 109.492 101.23 111.33 104.452C113.196 107.731 114.89 110.896 113.885 114.779C113.885 114.837 113.856 114.866 113.856 114.923C113.799 114.923 113.77 114.952 113.713 114.952C109.837 115.987 106.65 114.29 103.405 112.42C100.19 110.579 97.1175 108.566 96.0551 104.768C95.3373 102.151 95.8541 99.9931 97.0313 98.0945ZM114.861 87.796C117.101 87.7097 119.226 88.3426 121.121 90.27C123.877 93.0891 124.078 96.7425 124.078 100.482C124.078 104.251 123.934 107.846 121.121 110.694C121.092 110.723 121.034 110.781 121.006 110.809C120.948 110.809 120.92 110.781 120.862 110.781C117.015 109.716 115.12 106.667 113.225 103.416C111.359 100.194 109.693 96.9438 110.669 93.0891C111.359 90.4426 112.88 88.8316 114.861 87.796ZM135.448 87.796C137.429 88.8316 138.951 90.4426 139.64 93.0603C140.616 96.8863 138.979 100.166 137.084 103.388C135.189 106.638 133.294 109.688 129.447 110.752C129.39 110.752 129.361 110.781 129.303 110.781C129.275 110.752 129.217 110.694 129.189 110.666C126.375 107.818 126.26 104.222 126.231 100.453C126.231 96.7137 126.404 93.0603 129.189 90.2412C131.084 88.3426 133.208 87.7097 135.448 87.796ZM153.278 98.0945C154.455 99.9931 155.001 102.151 154.283 104.768C153.22 108.594 150.148 110.579 146.933 112.42C143.659 114.29 140.501 115.987 136.625 114.981C136.568 114.981 136.539 114.952 136.481 114.952C136.481 114.894 136.453 114.866 136.453 114.808C135.448 110.924 137.142 107.76 139.008 104.481C140.846 101.259 142.855 98.1808 146.645 97.1164C149.23 96.3973 151.383 96.9151 153.278 98.0945ZM163.585 115.959C163.672 118.202 163.04 120.331 161.116 122.23C158.302 124.991 154.656 125.193 150.924 125.193C147.162 125.193 143.573 125.049 140.731 122.23C140.702 122.201 140.645 122.143 140.616 122.115C140.616 122.057 140.645 122.028 140.645 121.971C141.707 118.116 144.75 116.218 147.995 114.319C151.211 112.449 154.455 110.781 158.302 111.759C160.944 112.449 162.523 113.974 163.585 115.959ZM163.585 136.584C162.552 138.569 160.944 140.094 158.331 140.784C154.513 141.762 151.239 140.123 148.024 138.224C144.779 136.325 141.736 134.427 140.673 130.572C140.673 130.515 140.645 130.486 140.645 130.428C140.673 130.4 140.731 130.342 140.76 130.313C143.602 127.494 147.191 127.379 150.952 127.35C154.685 127.35 158.331 127.523 161.145 130.313C163.04 132.212 163.643 134.341 163.585 136.584ZM153.278 154.449C151.383 155.628 149.23 156.175 146.617 155.455C142.798 154.391 140.817 151.313 138.979 148.091C137.113 144.812 135.419 141.647 136.424 137.764C136.424 137.706 136.453 137.678 136.453 137.62C136.51 137.62 136.539 137.591 136.596 137.591C140.472 136.584 143.631 138.282 146.904 140.151C150.12 141.993 153.192 144.006 154.254 147.803C155.001 150.392 154.484 152.55 153.278 154.449ZM135.448 164.776C133.208 164.862 131.084 164.229 129.189 162.302C126.432 159.483 126.231 155.829 126.231 152.09C126.231 148.321 126.375 144.725 129.189 141.877C129.217 141.849 129.275 141.791 129.303 141.762C129.361 141.762 129.39 141.791 129.447 141.791C133.294 142.856 135.189 145.905 137.084 149.155C138.951 152.377 140.616 155.628 139.64 159.483C138.979 162.129 137.429 163.711 135.448 164.776ZM114.861 164.776C112.88 163.74 111.359 162.129 110.669 159.511C109.693 155.685 111.33 152.406 113.225 149.184C115.12 145.934 117.015 142.884 120.862 141.82C120.92 141.82 120.948 141.791 121.006 141.791C121.034 141.82 121.092 141.877 121.121 141.906C123.934 144.754 124.049 148.35 124.078 152.118C124.078 155.858 123.906 159.511 121.121 162.331C119.226 164.229 117.101 164.833 114.861 164.776ZM97.0313 154.449C95.8541 152.55 95.3086 150.392 96.0264 147.775C97.0888 143.949 100.161 141.964 103.377 140.123C106.65 138.253 109.808 136.556 113.684 137.562C113.742 137.562 113.77 137.591 113.828 137.591C113.828 137.649 113.856 137.678 113.856 137.735C114.861 141.619 113.167 144.783 111.301 148.062C109.464 151.284 107.454 154.362 103.664 155.427C101.08 156.175 98.9263 155.657 97.0313 154.449ZM60.9405 126.286C60.194 127.782 59.4188 129.278 58.6148 130.687C55.8585 129.278 53.1596 127.811 50.4607 126.286C53.1309 124.761 55.8585 123.294 58.6148 121.885C59.4188 123.294 60.194 124.761 60.9405 126.286ZM69.5254 94.0959C68.1472 95.0452 66.7116 95.9082 65.3047 96.7425C63.6107 94.1535 62.0028 91.5357 60.4524 88.8604C63.5533 88.8604 66.6255 88.9755 69.6976 89.1193C69.6976 90.759 69.6402 92.4275 69.5254 94.0959ZM93.0404 70.536C91.3751 70.6511 89.7098 70.7086 88.0732 70.7086C87.901 67.6306 87.8148 64.5238 87.8148 61.4457C90.485 62.9991 93.0978 64.6388 95.6819 66.3073C94.8492 67.7456 93.9879 69.1552 93.0404 70.536ZM125.169 61.9347C123.676 61.1868 122.183 60.4101 120.776 59.6046C122.183 56.843 123.647 54.139 125.169 51.4349C126.691 54.1102 128.155 56.843 129.562 59.6046C128.126 60.4101 126.662 61.1868 125.169 61.9347ZM157.269 70.536C156.321 69.1552 155.46 67.7169 154.627 66.3073C157.211 64.6101 159.824 62.9991 162.494 61.4457C162.494 64.5525 162.38 67.6306 162.236 70.7086C160.628 70.7086 158.963 70.6511 157.269 70.536ZM180.784 94.0959C180.669 92.4275 180.612 90.759 180.612 89.1193C183.684 88.9467 186.785 88.8604 189.857 88.8604C188.306 91.5357 186.67 94.1535 185.005 96.7425C183.598 95.9082 182.191 95.0452 180.784 94.0959ZM189.397 126.286C190.144 124.79 190.919 123.294 191.723 121.885C194.479 123.294 197.178 124.761 199.877 126.286C197.207 127.811 194.479 129.278 191.723 130.687C190.919 129.249 190.144 127.782 189.397 126.286ZM180.784 158.447C182.162 157.498 183.598 156.635 185.005 155.801C186.699 158.39 188.306 161.007 189.857 163.683C186.756 163.683 183.684 163.568 180.612 163.424C180.612 161.813 180.669 160.144 180.784 158.447ZM157.269 182.007C158.934 181.892 160.599 181.834 162.236 181.834C162.408 184.912 162.494 188.019 162.494 191.097C159.824 189.544 157.211 187.904 154.627 186.236C155.46 184.826 156.35 183.417 157.269 182.007ZM125.169 190.637C126.662 191.385 128.155 192.162 129.562 192.967C128.155 195.729 126.691 198.433 125.169 201.137C123.647 198.462 122.183 195.729 120.776 192.967C122.183 192.162 123.647 191.385 125.169 190.637ZM93.0404 182.007C93.9879 183.388 94.8492 184.826 95.6819 186.236C93.0978 187.933 90.485 189.544 87.8148 191.097C87.8148 187.991 87.9297 184.912 88.0732 181.834C89.7098 181.834 91.3751 181.892 93.0404 182.007ZM69.5254 158.447C69.6402 160.116 69.6976 161.784 69.6976 163.424C66.6255 163.596 63.5246 163.683 60.4524 163.683C62.0028 161.007 63.6394 158.39 65.3047 155.801C66.7403 156.635 68.1472 157.527 69.5254 158.447ZM43.7995 126.286C48.0489 128.932 52.4418 131.378 56.8921 133.621C56.0308 135.031 55.1981 136.383 54.4229 137.62C53.5328 139.03 52.4992 140.525 51.4656 142.05C42.8233 137.62 34.583 132.356 27.0605 126.286C34.5543 120.216 42.7946 114.952 51.4656 110.522C52.4992 112.046 53.5328 113.513 54.4229 114.952C55.1981 116.189 56.0308 117.512 56.8921 118.95C52.4131 121.194 48.0489 123.639 43.7995 126.286ZM54.6813 85.5235C57.0357 89.9248 59.6198 94.2398 62.3474 98.4397C60.8831 99.2452 59.5049 99.9931 58.2129 100.655C56.7199 101.431 55.112 102.208 53.4467 103.014C48.1637 94.8439 43.6559 86.1563 40.1818 77.1523C49.7142 75.6565 59.4762 75.225 69.1808 75.714C69.3244 77.5551 69.4679 79.3386 69.5254 81.0071C69.5828 82.4742 69.6402 84.0564 69.6689 85.6961C64.7018 85.4372 59.7059 85.3509 54.6813 85.5235ZM84.4842 55.6636C84.3407 60.669 84.3981 65.7032 84.6852 70.6798C83.0199 70.6511 81.4408 70.5935 80.0052 70.536C78.3399 70.4785 76.5311 70.3059 74.7222 70.1908C74.2341 60.4676 74.6648 50.687 76.1578 41.1364C85.1733 44.6172 93.8156 49.1336 101.97 54.4266C101.166 56.0663 100.391 57.706 99.6154 59.2019C98.9263 60.4964 98.2085 61.906 97.4046 63.3443C93.1839 60.6402 88.8772 58.0512 84.4842 55.6636ZM125.169 44.761C122.527 49.0185 120.087 53.4198 117.847 57.8786C116.441 57.0156 115.091 56.1814 113.856 55.4047C112.45 54.5129 110.957 53.4773 109.435 52.4417C113.856 43.7829 119.111 35.5269 125.169 27.99C131.227 35.4981 136.481 43.7542 140.903 52.4417C139.381 53.4773 137.917 54.5129 136.481 55.4047C135.247 56.1814 133.926 57.0156 132.491 57.8786C130.222 53.391 127.782 49.0185 125.169 44.761ZM165.854 55.6636C161.461 58.0225 157.154 60.6115 152.962 63.3443C152.158 61.8772 151.412 60.4964 150.751 59.2019C149.976 57.706 149.201 56.0951 148.397 54.4266C156.551 49.1336 165.222 44.6172 174.209 41.1364C175.702 50.687 176.133 60.4676 175.644 70.1908C173.807 70.3346 172.027 70.4785 170.361 70.536C168.897 70.5935 167.318 70.6511 165.681 70.6798C165.911 65.7032 165.997 60.6978 165.854 55.6636ZM195.628 85.5235C190.632 85.3796 185.607 85.4372 180.64 85.7248C180.669 84.0564 180.726 82.4742 180.784 81.0359C180.841 79.3674 181.014 77.5551 181.128 75.7428C190.833 75.2537 200.595 75.6852 210.127 77.1811C206.653 86.2139 202.146 94.8726 196.863 103.042C195.226 102.237 193.589 101.46 192.096 100.684C190.804 99.9931 189.397 99.2739 187.962 98.4685C190.689 94.2398 193.274 89.9248 195.628 85.5235ZM206.538 126.286C202.289 123.639 197.896 121.194 193.446 118.95C194.307 117.512 195.14 116.189 195.915 114.952C196.805 113.542 197.839 112.046 198.872 110.522C207.515 114.952 215.755 120.216 223.277 126.286C215.784 132.356 207.543 137.62 198.872 142.05C197.839 140.525 196.805 139.058 195.915 137.62C195.14 136.383 194.307 135.06 193.446 133.621C197.896 131.349 202.289 128.904 206.538 126.286ZM195.628 167.048C193.274 162.647 190.689 158.332 187.962 154.132C189.426 153.327 190.804 152.579 192.096 151.917C193.589 151.14 195.197 150.364 196.863 149.558C202.146 157.728 206.653 166.415 210.127 175.419C200.595 176.915 190.833 177.347 181.128 176.858C180.985 175.017 180.841 173.233 180.784 171.565C180.726 170.098 180.669 168.515 180.64 166.876C185.636 167.106 190.632 167.192 195.628 167.048ZM165.854 196.879C165.997 191.874 165.94 186.84 165.653 181.863C167.318 181.892 168.897 181.95 170.333 182.007C171.998 182.065 173.807 182.237 175.616 182.352C176.104 192.075 175.673 201.856 174.18 211.407C165.165 207.926 156.522 203.409 148.368 198.116C149.172 196.477 149.947 194.837 150.723 193.341C151.412 192.047 152.129 190.666 152.933 189.199C157.154 191.932 161.432 194.521 165.854 196.879ZM125.169 207.811C127.81 203.553 130.251 199.152 132.491 194.693C133.897 195.556 135.247 196.39 136.481 197.167C137.888 198.059 139.381 199.094 140.903 200.13C136.481 208.789 131.227 217.045 125.169 224.582C119.111 217.074 113.856 208.818 109.435 200.13C110.957 199.094 112.421 198.059 113.856 197.167C115.091 196.39 116.412 195.556 117.847 194.693C120.087 199.152 122.527 203.553 125.169 207.811ZM84.4842 196.879C88.8772 194.521 93.1839 191.932 97.3759 189.199C98.1798 190.666 98.9263 192.047 99.5867 193.341C100.362 194.837 101.137 196.448 101.941 198.116C93.7869 203.409 85.1159 207.926 76.1291 211.407C74.6361 201.856 74.2054 192.075 74.6935 182.352C76.5311 182.208 78.3112 182.065 79.9765 182.007C81.4408 181.95 83.0199 181.892 84.6565 181.863C84.3981 186.869 84.312 191.874 84.4842 196.879ZM54.6813 167.048C59.6772 167.192 64.7018 167.135 69.6689 166.847C69.6402 168.515 69.5828 170.098 69.5254 171.536C69.4679 173.204 69.2957 175.017 69.1808 176.829C59.4762 177.318 49.7142 176.887 40.1818 175.391C43.6559 166.358 48.1637 157.699 53.4467 149.529C55.0833 150.335 56.7199 151.112 58.2129 151.888C59.5049 152.579 60.9118 153.298 62.3474 154.103C59.6485 158.332 57.0644 162.618 54.6813 167.048ZM73.6311 126.286C72.8559 128.386 72.3391 130.63 72.0233 132.931C71.7075 135.319 71.9084 138.023 71.8223 140.583C73.1718 142.769 74.3489 145.214 75.8132 147.113C77.2201 148.954 78.7993 150.623 80.522 152.061C80.8953 154.276 81.5843 156.462 82.4457 158.62C83.3645 160.835 84.8862 163.079 86.0921 165.351C88.3603 166.559 90.5999 168.113 92.8107 169.004C94.9354 169.896 97.1462 170.558 99.357 170.932C100.793 172.658 102.487 174.24 104.295 175.65C106.19 177.117 108.631 178.296 110.813 179.648C113.397 179.562 116.096 179.763 118.45 179.447C120.747 179.13 122.987 178.613 125.083 177.836C127.179 178.613 129.418 179.13 131.715 179.447C134.098 179.763 136.797 179.562 139.353 179.648C141.535 178.296 143.975 177.117 145.87 175.65C147.708 174.24 149.373 172.658 150.809 170.932C153.019 170.558 155.202 169.867 157.355 169.004C159.566 168.084 161.805 166.559 164.074 165.351C165.279 163.079 166.83 160.835 167.72 158.62C168.61 156.491 169.27 154.276 169.644 152.061C171.366 150.623 172.946 148.954 174.352 147.113C175.817 145.214 176.994 142.769 178.343 140.583C178.257 137.994 178.458 135.29 178.142 132.931C177.827 130.63 177.31 128.386 176.535 126.286C177.31 124.186 177.827 121.942 178.142 119.641C178.458 117.253 178.257 114.549 178.343 111.989C176.994 109.803 175.817 107.357 174.352 105.459C172.946 103.618 171.366 101.949 169.644 100.511C169.27 98.2959 168.581 96.1096 167.72 93.9521C166.801 91.7371 165.279 89.4933 164.074 87.2207C161.805 86.0125 159.566 84.4591 157.355 83.5673C155.23 82.6756 153.019 82.0139 150.809 81.6399C149.373 79.9139 147.708 78.3318 145.87 76.9222C143.975 75.4551 141.535 74.2757 139.353 72.9236C136.769 73.0099 134.07 72.8086 131.715 73.125C129.418 73.4414 127.179 73.9592 125.083 74.7359C122.987 73.9592 120.747 73.4414 118.45 73.125C116.067 72.8086 113.368 73.0099 110.813 72.9236C108.631 74.2757 106.19 75.4551 104.295 76.9222C102.458 78.3318 100.793 79.9139 99.357 81.6399C97.1462 82.0139 94.9641 82.7043 92.8107 83.5673C90.5999 84.4879 88.3603 86.0125 86.0921 87.2207C84.8862 89.4933 83.3358 91.7371 82.4457 93.9521C81.5556 96.0808 80.8953 98.2959 80.522 100.511C78.7993 101.949 77.2201 103.618 75.8132 105.459C74.3489 107.357 73.1718 109.803 71.8223 111.989C71.9084 114.578 71.7075 117.282 72.0233 119.641C72.3678 121.942 72.8559 124.157 73.6311 126.286ZM56.5189 144.697C59.3901 140.382 62.0603 135.952 64.4434 131.349C65.3047 129.68 66.1086 127.983 66.8551 126.286C66.1086 124.589 65.3047 122.891 64.4434 121.223C62.089 116.62 59.3901 112.19 56.5189 107.875C61.1415 105.574 65.678 103.071 70.0422 100.281C71.6213 99.2739 73.1718 98.2096 74.6648 97.0877C74.8658 95.2178 75.0093 93.348 75.0955 91.4782C75.3539 86.3002 75.239 81.1221 74.8945 75.9441C80.0626 76.2606 85.2307 76.3756 90.3989 76.1455C92.2652 76.0592 94.1314 75.9154 95.9977 75.714C97.0888 74.2181 98.1511 72.6647 99.1847 71.0826C101.998 66.7388 104.468 62.1649 106.765 57.5334C111.071 60.4101 115.493 63.0854 120.087 65.4731C121.752 66.3361 123.446 67.1415 125.14 67.8895C126.834 67.1415 128.528 66.3361 130.194 65.4731C134.787 63.1142 139.209 60.4101 143.516 57.5334C145.813 62.1649 148.311 66.71 151.096 71.0826C152.101 72.6647 153.163 74.2181 154.283 75.714C156.149 75.9154 158.015 76.0592 159.882 76.1455C165.05 76.4044 170.218 76.2893 175.386 75.9441C175.07 81.1221 174.955 86.3002 175.185 91.4782C175.271 93.348 175.415 95.2178 175.616 97.0877C177.109 98.1808 178.659 99.2452 180.238 100.281C184.574 103.1 189.139 105.574 193.762 107.875C190.89 112.19 188.22 116.62 185.837 121.223C184.976 122.891 184.172 124.589 183.425 126.286C184.172 127.983 184.976 129.68 185.837 131.349C188.192 135.952 190.89 140.382 193.762 144.697C189.139 146.998 184.603 149.501 180.238 152.291C178.659 153.298 177.109 154.362 175.616 155.484C175.415 157.354 175.271 159.224 175.185 161.094C174.927 166.272 175.042 171.45 175.386 176.628C170.218 176.311 165.05 176.196 159.882 176.426C158.015 176.513 156.149 176.656 154.283 176.858C153.192 178.354 152.129 179.907 151.096 181.489C148.282 185.833 145.813 190.407 143.516 195.038C139.209 192.162 134.787 189.486 130.194 187.099C128.528 186.236 126.834 185.43 125.14 184.682C123.446 185.43 121.752 186.236 120.087 187.099C115.493 189.458 111.071 192.162 106.765 195.038C104.468 190.407 101.97 185.862 99.1847 181.489C98.1798 179.907 97.1175 178.354 95.9977 176.858C94.1314 176.656 92.2652 176.513 90.3989 176.426C85.2307 176.167 80.0626 176.282 74.8945 176.628C75.2103 171.45 75.3251 166.272 75.0955 161.094C75.0093 159.224 74.8658 157.354 74.6648 155.484C73.1718 154.391 71.6213 153.327 70.0422 152.291C65.7067 149.501 61.1415 146.998 56.5189 144.697ZM113.34 129.45C113.196 129.249 113.024 129.048 112.88 128.846C111.99 127.782 111.014 126.919 109.98 126.286C111.014 125.624 111.99 124.79 112.88 123.726C113.053 123.524 113.196 123.323 113.34 123.122C113.311 122.863 113.282 122.633 113.225 122.374C112.995 120.993 112.564 119.785 111.99 118.691C113.225 118.634 114.488 118.404 115.78 117.915C116.01 117.828 116.268 117.742 116.498 117.627C116.584 117.397 116.699 117.167 116.785 116.908C117.273 115.585 117.503 114.319 117.56 113.111C118.651 113.686 119.857 114.118 121.235 114.348C121.494 114.405 121.752 114.434 121.982 114.463C122.183 114.319 122.384 114.146 122.585 114.003C123.647 113.111 124.509 112.133 125.14 111.097C125.801 112.133 126.633 113.111 127.696 114.003C127.897 114.175 128.098 114.319 128.299 114.463C128.557 114.434 128.787 114.405 129.045 114.348C130.423 114.118 131.629 113.686 132.72 113.111C132.778 114.348 133.007 115.613 133.495 116.908C133.582 117.138 133.668 117.397 133.783 117.627C134.012 117.713 134.242 117.828 134.5 117.915C135.821 118.404 137.084 118.634 138.29 118.691C137.716 119.785 137.285 120.993 137.056 122.374C136.998 122.633 136.97 122.891 136.941 123.122C137.084 123.323 137.257 123.524 137.4 123.726C138.29 124.79 139.266 125.653 140.3 126.286C139.266 126.948 138.29 127.782 137.4 128.846C137.228 129.048 137.084 129.249 136.941 129.45C136.97 129.709 136.998 129.939 137.056 130.198C137.285 131.579 137.716 132.787 138.29 133.88C137.056 133.938 135.792 134.168 134.5 134.657C134.271 134.743 134.012 134.83 133.783 134.945C133.696 135.175 133.582 135.405 133.495 135.664C133.007 136.987 132.778 138.253 132.72 139.461C131.629 138.886 130.423 138.454 129.045 138.224C128.787 138.167 128.528 138.138 128.299 138.109C128.098 138.253 127.897 138.425 127.696 138.569C126.633 139.461 125.772 140.439 125.14 141.475C124.48 140.439 123.647 139.461 122.585 138.569C122.384 138.397 122.183 138.253 121.982 138.109C121.724 138.138 121.494 138.167 121.235 138.224C119.857 138.454 118.651 138.886 117.56 139.461C117.503 138.224 117.273 136.958 116.785 135.664C116.699 135.434 116.613 135.175 116.498 134.945C116.268 134.858 116.039 134.743 115.78 134.657C114.459 134.168 113.196 133.938 111.99 133.88C112.564 132.787 112.995 131.579 113.225 130.198C113.282 129.968 113.311 129.709 113.34 129.45ZM89.5375 126.286C85.604 128.558 83.3071 132.384 83.5368 137.476C85.8624 141.993 89.7672 144.15 94.3037 144.15C92.0355 148.091 91.9493 152.55 94.677 156.836C98.9263 159.569 103.405 159.483 107.339 157.21C107.339 161.755 109.492 165.668 114 167.998C119.053 168.228 122.901 165.926 125.14 161.985C127.409 165.926 131.227 168.228 136.309 167.998C140.817 165.668 142.97 161.755 142.97 157.21C146.904 159.483 151.354 159.569 155.632 156.836C158.36 152.579 158.274 148.091 156.006 144.15C160.542 144.15 164.447 141.993 166.772 137.476C167.002 132.413 164.705 128.558 160.772 126.286C164.705 124.013 167.002 120.187 166.772 115.096C164.447 110.579 160.542 108.422 156.006 108.422C158.274 104.481 158.36 100.022 155.632 95.7356C151.383 93.0028 146.904 93.0891 142.97 95.3617C142.97 90.8165 140.817 86.9043 136.309 84.5742C131.256 84.344 127.409 86.6454 125.14 90.5864C122.872 86.6454 119.053 84.344 114 84.5742C109.492 86.9043 107.339 90.8165 107.339 95.3617C103.405 93.0891 98.955 93.0028 94.677 95.7356C91.9493 99.9931 92.0355 104.481 94.3037 108.422C89.7672 108.422 85.8624 110.579 83.5368 115.096C83.3071 120.159 85.604 124.013 89.5375 126.286ZM76.3588 139.375C75.44 134.83 75.44 130.4 77.3924 126.286C75.44 122.172 75.44 117.742 76.3588 113.197C77.8231 108.796 80.0339 104.97 83.7952 102.352C84.1684 97.8068 86.3792 93.9809 89.4514 90.5001C92.9255 87.4221 96.7442 85.207 101.281 84.8331C103.865 81.0646 107.712 78.8783 112.105 77.3825C116.642 76.4619 121.063 76.4619 125.169 78.4181C129.275 76.4619 133.696 76.4619 138.233 77.3825C142.626 78.8496 146.444 81.0646 149.057 84.8331C153.594 85.207 157.412 87.4221 160.887 90.5001C163.959 93.9809 166.17 97.8068 166.543 102.352C170.304 104.941 172.486 108.796 173.979 113.197C174.898 117.742 174.898 122.172 172.946 126.286C174.898 130.4 174.898 134.83 173.979 139.375C172.515 143.776 170.304 147.602 166.543 150.22C166.17 154.765 163.959 158.591 160.887 162.072C157.412 165.15 153.594 167.365 149.057 167.739C146.473 171.507 142.626 173.693 138.233 175.189C133.696 176.11 129.275 176.11 125.169 174.154C121.063 176.11 116.642 176.11 112.105 175.189C107.712 173.722 103.893 171.507 101.281 167.739C96.7442 167.365 92.9255 165.15 89.4514 162.072C86.3792 158.591 84.1684 154.765 83.7952 150.22C80.0339 147.631 77.8231 143.776 76.3588 139.375ZM121.436 126.286C121.58 126.574 121.695 126.89 121.838 127.178C121.896 127.494 121.925 127.811 121.953 128.156C122.212 128.328 122.499 128.53 122.728 128.731C122.929 128.99 123.13 129.249 123.303 129.508C123.619 129.537 123.963 129.565 124.279 129.623C124.566 129.738 124.882 129.882 125.169 130.026C125.456 129.882 125.772 129.767 126.059 129.623C126.375 129.565 126.691 129.537 127.035 129.508C127.208 129.249 127.409 128.961 127.609 128.731C127.868 128.53 128.126 128.328 128.385 128.156C128.413 127.839 128.442 127.494 128.5 127.178C128.614 126.89 128.758 126.574 128.902 126.286C128.758 125.998 128.643 125.682 128.5 125.394C128.442 125.078 128.413 124.761 128.385 124.416C128.126 124.243 127.839 124.042 127.609 123.841C127.409 123.582 127.208 123.323 127.035 123.064C126.719 123.035 126.375 123.006 126.059 122.949C125.772 122.834 125.456 122.69 125.169 122.546C124.882 122.69 124.566 122.805 124.279 122.949C123.963 123.006 123.647 123.035 123.303 123.064C123.13 123.323 122.929 123.611 122.728 123.841C122.47 124.042 122.212 124.243 121.953 124.416C121.925 124.732 121.896 125.078 121.838 125.394C121.695 125.682 121.58 125.969 121.436 126.286ZM21.7488 126.286C30.1901 133.593 39.6076 139.777 49.5706 144.927C49.1686 145.588 48.7667 146.25 48.3934 146.912C49.0538 147.286 49.7142 147.66 50.4032 148.034C44.345 157.469 39.263 167.566 35.6166 178.124C46.5558 180.223 57.8109 180.856 69.0085 180.31C68.9798 181.087 68.9798 181.834 68.9798 182.611C69.7263 182.611 70.5016 182.611 71.2768 182.582C70.7312 193.801 71.3916 205.078 73.4589 216.038C83.9961 212.385 94.074 207.293 103.492 201.223C103.865 201.914 104.209 202.575 104.611 203.237C105.272 202.863 105.932 202.46 106.592 202.057C111.703 212.039 117.905 221.475 125.198 229.932C132.491 221.475 138.664 212.039 143.803 202.057C144.463 202.46 145.124 202.863 145.784 203.237C146.157 202.575 146.531 201.914 146.904 201.223C156.321 207.293 166.399 212.385 176.936 216.038C179.032 205.078 179.664 193.801 179.119 182.582C179.894 182.611 180.64 182.611 181.416 182.611C181.416 181.863 181.416 181.087 181.387 180.31C192.584 180.856 203.84 180.195 214.779 178.124C211.132 167.566 206.05 157.469 199.992 148.034C200.681 147.66 201.342 147.314 202.002 146.912C201.629 146.25 201.227 145.588 200.825 144.927C210.788 139.806 220.234 133.593 228.647 126.286C220.205 118.979 210.788 112.794 200.825 107.645C201.227 106.983 201.629 106.322 202.002 105.66C201.342 105.286 200.681 104.912 199.992 104.538C206.05 95.1028 211.132 85.0057 214.779 74.4483C203.84 72.3483 192.584 71.7154 181.387 72.262C181.416 71.4853 181.416 70.7374 181.416 69.9607C180.669 69.9607 179.894 69.9607 179.119 69.9894C179.664 58.7704 179.004 47.4939 176.936 36.5337C166.399 40.1871 156.321 45.2788 146.904 51.3486C146.531 50.6582 146.186 49.9966 145.784 49.3349C145.124 49.7089 144.463 50.1116 143.803 50.5144C138.692 40.5323 132.491 31.0968 125.198 22.6394C117.905 31.0968 111.732 40.5323 106.592 50.5144C105.932 50.1116 105.272 49.7089 104.611 49.3349C104.238 49.9966 103.865 50.6582 103.492 51.3486C94.074 45.2788 83.9961 40.1871 73.4589 36.5337C71.3629 47.4939 70.7312 58.7704 71.2768 69.9894C70.5016 69.9607 69.755 69.9607 68.9798 69.9607C68.9798 70.7086 68.9798 71.4853 69.0085 72.262C57.8109 71.7154 46.5558 72.3771 35.6166 74.4483C39.263 85.0057 44.345 95.1028 50.4032 104.538C49.7142 104.912 49.0538 105.257 48.3934 105.66C48.7667 106.322 49.1686 106.983 49.5706 107.645C39.6076 112.766 30.1901 118.979 21.7488 126.286ZM37.971 149.673C28.9268 142.223 20.1122 134.484 11.757 126.257C20.1122 118.03 28.9268 110.292 37.971 102.841C33.8365 91.8521 30.0752 80.7482 26.9456 69.4429C38.2868 66.5087 49.7716 64.2073 61.3425 62.3087C63.2374 50.7445 65.5344 39.209 68.463 27.8462C79.7468 30.9818 90.8583 34.7502 101.798 38.8926C109.234 29.8311 116.957 20.9997 125.169 12.6286C133.381 20.9997 141.104 29.8311 148.54 38.8926C159.508 34.7502 170.591 30.9818 181.875 27.8462C184.804 39.209 187.1 50.7157 188.995 62.3087C200.538 64.2073 212.051 66.5087 223.392 69.4429C220.263 80.7482 216.501 91.8809 212.367 102.841C221.411 110.292 230.226 118.03 238.581 126.257C230.226 134.484 221.411 142.223 212.367 149.673C216.501 160.662 220.263 171.766 223.392 183.071C212.051 186.006 200.566 188.307 188.995 190.206C187.1 201.77 184.804 213.305 181.875 224.668C170.591 221.533 159.48 217.764 148.54 213.622C141.104 222.683 133.381 231.515 125.169 239.886C116.957 231.515 109.234 222.683 101.798 213.622C90.8296 217.764 79.7468 221.533 68.463 224.668C65.5344 213.305 63.2374 201.799 61.3425 190.206C49.8003 188.307 38.2868 186.006 26.9456 183.071C30.1039 171.766 33.8652 160.662 37.971 149.673Z" fill="url(#paint0_linear_1_1625)"/>
</g>
<defs>
<linearGradient id="paint0_linear_1_1625" x1="234.527" y1="-27.0662" x2="-0.336064" y2="173.75" gradientUnits="userSpaceOnUse">
<stop stop-color="#232323"/>
<stop offset="1" stop-color="#232323" stop-opacity="0"/>
</linearGradient>
</defs>
</svg>
