<svg width="303" height="322" viewBox="0 0 303 322" fill="none" xmlns="http://www.w3.org/2000/svg">
<path d="M146.652 152.492C146.652 154.041 147.153 155.549 148.114 156.847C148.239 157.098 148.406 157.35 148.657 157.559C148.865 157.81 149.116 157.978 149.367 158.103C152.165 160.155 156.132 160.113 158.721 157.559C160.058 156.219 160.768 154.376 160.81 152.45C160.768 150.565 160.058 148.681 158.721 147.341C156.174 144.786 152.165 144.745 149.367 146.797C149.116 146.922 148.865 147.09 148.657 147.341C148.406 147.55 148.239 147.802 148.114 148.053C147.153 149.393 146.652 150.942 146.652 152.492ZM157.218 126.905C156.132 127.994 155.422 129.459 155.172 131.009C155.088 131.302 155.046 131.595 155.046 131.93C155.046 132.265 155.088 132.558 155.172 132.81C155.715 136.244 158.554 139.049 162.146 139.049C164.025 139.049 165.863 138.254 167.199 136.955C168.494 135.573 169.287 133.731 169.287 131.888C169.287 128.245 166.489 125.439 163.065 124.895C162.814 124.811 162.522 124.769 162.188 124.769C161.854 124.769 161.561 124.811 161.269 124.895C159.724 125.104 158.304 125.816 157.218 126.905ZM182.735 116.31C181.19 116.31 179.686 116.813 178.391 117.776C178.141 117.901 177.89 118.069 177.681 118.32C177.431 118.53 177.264 118.781 177.139 119.032C175.092 121.838 175.134 125.816 177.681 128.413C179.018 129.753 180.855 130.464 182.776 130.506C184.656 130.464 186.535 129.753 187.871 128.413C190.419 125.858 190.461 121.838 188.414 119.032C188.289 118.781 188.122 118.53 187.871 118.32C187.663 118.069 187.412 117.901 187.162 117.776C185.783 116.813 184.238 116.31 182.735 116.31ZM208.251 126.905C207.166 125.816 205.704 125.104 204.159 124.853C203.908 124.769 203.574 124.727 203.24 124.727C202.906 124.727 202.614 124.769 202.363 124.853C198.938 125.397 196.14 128.245 196.14 131.846C196.14 133.731 196.934 135.573 198.229 136.914C199.607 138.212 201.444 139.007 203.282 139.007C206.915 139.007 209.713 136.202 210.256 132.768C210.34 132.516 210.381 132.223 210.381 131.888C210.381 131.553 210.34 131.26 210.256 130.967C210.047 129.418 209.295 127.994 208.251 126.905ZM218.817 152.492C218.817 150.942 218.316 149.435 217.356 148.137C217.23 147.885 217.063 147.634 216.813 147.425C216.604 147.173 216.353 147.006 216.103 146.88C213.305 144.828 209.337 144.87 206.748 147.425C205.412 148.765 204.702 150.607 204.66 152.534C204.702 154.418 205.453 156.303 206.748 157.643C209.296 160.197 213.305 160.239 216.103 158.187C216.353 158.061 216.604 157.894 216.813 157.643C217.063 157.433 217.23 157.182 217.356 156.931C218.316 155.549 218.776 153.999 218.817 152.492ZM208.251 178.079C209.337 176.99 210.047 175.524 210.298 173.975C210.381 173.723 210.423 173.388 210.423 173.053C210.423 172.718 210.381 172.425 210.298 172.174C209.755 168.74 206.915 165.934 203.323 165.934C201.444 165.934 199.607 166.73 198.27 168.028C196.976 169.41 196.182 171.253 196.182 173.095C196.182 176.739 198.98 179.544 202.405 180.089C202.655 180.172 202.948 180.214 203.282 180.214C203.616 180.214 203.908 180.172 204.201 180.089C205.704 179.879 207.166 179.126 208.251 178.079ZM182.735 188.674C184.28 188.674 185.783 188.171 187.078 187.208C187.329 187.082 187.579 186.915 187.788 186.663C188.039 186.454 188.206 186.203 188.331 185.952C190.377 183.146 190.335 179.167 187.788 176.571C186.452 175.231 184.614 174.519 182.693 174.477C180.814 174.519 178.934 175.273 177.598 176.571C175.05 179.126 175.009 183.146 177.055 185.952C177.18 186.203 177.347 186.454 177.598 186.663C177.807 186.915 178.057 187.082 178.308 187.208C179.644 188.171 181.19 188.632 182.735 188.674ZM157.218 178.079C158.304 179.167 159.765 179.879 161.311 180.131C161.603 180.214 161.895 180.256 162.229 180.256C162.564 180.256 162.856 180.214 163.106 180.131C166.531 179.586 169.329 176.739 169.329 173.137C169.329 171.253 168.536 169.41 167.241 168.07C165.863 166.772 164.025 165.976 162.188 165.976C158.554 165.976 155.756 168.782 155.213 172.216C155.13 172.467 155.088 172.76 155.088 173.095C155.088 173.43 155.13 173.723 155.213 174.017C155.422 175.524 156.132 176.99 157.218 178.079ZM155.339 152.492C155.339 152.827 155.213 153.204 154.963 153.539C154.378 154.334 153.167 154.334 152.499 153.664C152.206 153.329 152.039 152.911 152.039 152.45C152.039 152.031 152.206 151.57 152.499 151.235C153.167 150.607 154.378 150.607 154.963 151.361C155.255 151.78 155.339 152.115 155.339 152.492ZM163.357 133.061C163.106 133.312 162.772 133.48 162.355 133.563C161.394 133.689 160.559 132.851 160.517 131.93C160.517 131.47 160.726 131.051 161.06 130.758C161.352 130.464 161.77 130.255 162.229 130.213C163.148 130.255 163.983 131.093 163.858 132.056C163.816 132.475 163.608 132.81 163.357 133.061ZM182.735 125.02C182.401 125.02 182.025 124.895 181.691 124.644C180.897 124.057 180.897 122.843 181.565 122.173C181.899 121.88 182.317 121.712 182.776 121.712C183.194 121.712 183.653 121.88 183.988 122.173C184.614 122.843 184.614 124.057 183.862 124.644C183.445 124.937 183.069 125.02 182.735 125.02ZM202.071 133.061C201.82 132.81 201.653 132.475 201.569 132.056C201.444 131.093 202.279 130.255 203.198 130.213C203.658 130.213 204.075 130.423 204.368 130.758C204.66 131.051 204.869 131.47 204.91 131.93C204.869 132.851 204.033 133.689 203.073 133.563C202.655 133.522 202.321 133.312 202.071 133.061ZM210.089 152.492C210.089 152.157 210.214 151.78 210.465 151.445C211.05 150.649 212.261 150.649 212.929 151.319C213.221 151.654 213.388 152.073 213.388 152.534C213.388 152.952 213.221 153.413 212.929 153.748C212.261 154.376 211.05 154.376 210.465 153.622C210.214 153.204 210.089 152.827 210.089 152.492ZM202.071 171.881C202.321 171.63 202.655 171.462 203.073 171.378C204.033 171.253 204.869 172.09 204.91 173.012C204.91 173.472 204.702 173.891 204.368 174.184C204.075 174.477 203.658 174.687 203.198 174.728C202.279 174.687 201.444 173.849 201.569 172.886C201.653 172.467 201.82 172.132 202.071 171.881ZM182.735 179.921C183.069 179.921 183.445 180.047 183.779 180.298C184.572 180.884 184.572 182.099 183.904 182.769C183.57 183.062 183.152 183.229 182.693 183.229C182.275 183.229 181.816 183.062 181.482 182.769C180.855 182.099 180.855 180.884 181.607 180.298C182.025 180.047 182.359 179.921 182.735 179.921ZM163.357 171.881C163.608 172.132 163.775 172.467 163.858 172.886C163.983 173.849 163.148 174.687 162.229 174.728C161.77 174.728 161.352 174.519 161.06 174.184C160.768 173.891 160.559 173.472 160.517 173.012C160.559 172.09 161.394 171.253 162.355 171.378C162.772 171.462 163.106 171.63 163.357 171.881Z" fill="white" fill-opacity="0.1"/>
<path d="M134.625 152.492C135.21 154.167 135.92 155.758 136.588 157.224C138.425 161.328 140.722 165.223 143.27 168.908C144.063 173.347 145.233 177.702 146.82 181.89C147.362 183.397 148.031 184.989 148.782 186.622C150.369 187.376 151.998 188.004 153.502 188.59C157.72 190.181 162.063 191.312 166.448 192.15C170.123 194.704 174.007 196.965 178.1 198.85C179.561 199.52 181.148 200.19 182.819 200.818C184.489 200.232 186.076 199.52 187.538 198.85C191.63 196.965 195.514 194.704 199.189 192.15C203.616 191.354 207.96 190.181 212.136 188.59C213.639 188.046 215.226 187.376 216.855 186.622C217.607 185.03 218.233 183.397 218.818 181.89C220.405 177.66 221.532 173.305 222.368 168.908C224.915 165.223 227.17 161.328 229.049 157.224C229.718 155.758 230.386 154.167 231.012 152.492C230.428 150.817 229.718 149.226 229.049 147.76C227.212 143.656 224.915 139.761 222.368 136.076C221.574 131.637 220.405 127.282 218.818 123.094C218.275 121.587 217.607 119.996 216.855 118.362C215.268 117.609 213.639 116.98 212.136 116.394C207.918 114.803 203.575 113.672 199.189 112.835C195.514 110.28 191.63 108.019 187.538 106.134C186.076 105.464 184.489 104.794 182.819 104.166C181.148 104.752 179.561 105.464 178.1 106.134C174.007 107.977 170.123 110.28 166.448 112.835C162.021 113.63 157.678 114.803 153.502 116.394C151.998 116.938 150.411 117.609 148.782 118.362C148.031 119.954 147.404 121.587 146.82 123.094C145.233 127.324 144.105 131.679 143.27 136.076C140.722 139.761 138.467 143.656 136.588 147.76C135.878 149.226 135.21 150.817 134.625 152.492ZM148.448 166.73C146.36 163.757 144.481 160.658 142.81 157.434C142.142 156.135 141.265 154.418 140.472 152.492C141.307 150.566 142.142 148.849 142.81 147.551C144.481 144.284 146.36 141.227 148.448 138.254C149.075 134.694 149.91 131.135 151.038 127.659C151.497 126.277 152.082 124.434 152.875 122.508C154.838 121.712 156.634 121.126 158.012 120.666C161.478 119.535 164.986 118.697 168.578 118.069C171.543 115.975 174.633 114.091 177.849 112.416C179.144 111.746 180.856 110.866 182.777 110.071C184.698 110.908 186.41 111.746 187.705 112.416C190.962 114.091 194.011 115.975 196.976 118.069C200.526 118.697 204.076 119.535 207.542 120.666C208.92 121.126 210.758 121.712 212.679 122.508C213.472 124.476 214.057 126.277 214.516 127.659C215.644 131.135 216.479 134.652 217.105 138.254C219.194 141.227 221.073 144.326 222.743 147.551C223.412 148.849 224.289 150.566 225.082 152.492C224.247 154.418 223.412 156.135 222.743 157.434C221.073 160.7 219.194 163.757 217.105 166.73C216.479 170.29 215.644 173.849 214.516 177.325C214.057 178.707 213.472 180.55 212.679 182.476C210.716 183.272 208.92 183.858 207.542 184.319C204.076 185.449 200.568 186.287 196.976 186.915C194.011 189.009 190.921 190.893 187.705 192.568C186.41 193.238 184.698 194.118 182.777 194.913C180.856 194.076 179.144 193.238 177.849 192.568C174.591 190.893 171.543 189.009 168.578 186.915C165.028 186.287 161.478 185.449 158.012 184.319C156.634 183.858 154.796 183.272 152.875 182.476C152.082 180.508 151.497 178.707 151.038 177.325C149.868 173.849 149.033 170.29 148.448 166.73ZM174.717 152.492C175.636 153.204 176.513 153.958 177.39 154.712C177.306 155.842 177.181 157.015 177.055 158.145C178.183 158.02 179.352 157.936 180.48 157.852C181.232 158.732 181.983 159.611 182.693 160.532C183.403 159.611 184.155 158.732 184.907 157.852C186.034 157.936 187.204 158.062 188.331 158.145C188.206 157.015 188.122 155.842 188.039 154.712C188.916 153.958 189.793 153.204 190.712 152.492C189.793 151.78 188.916 151.026 188.039 150.273C188.122 149.142 188.248 147.969 188.331 146.839C187.204 146.964 186.034 147.048 184.907 147.174C184.155 146.294 183.403 145.415 182.693 144.494C181.983 145.415 181.232 146.294 180.48 147.174C179.352 147.09 178.183 146.964 177.055 146.839C177.181 147.969 177.264 149.142 177.39 150.273C176.513 151.026 175.636 151.738 174.717 152.492Z" fill="white" fill-opacity="0.1"/>
<path d="M0.734863 152.492C1.40306 163.882 2.44712 175.231 3.69998 186.58C5.1199 199.31 6.87392 212.083 8.50265 224.897C16.3957 235.115 24.1217 245.375 32.0983 255.384C39.1979 264.304 46.5063 273.056 54.0235 281.557C62.543 289.137 71.2713 296.423 80.1249 303.542C90.1061 311.541 100.338 319.33 110.528 327.203C123.307 328.836 136.045 330.595 148.699 332.019C160.016 333.275 171.334 334.28 182.693 334.992C194.052 334.322 205.37 333.317 216.688 332.019C229.383 330.595 242.121 328.836 254.9 327.203C265.09 319.288 275.322 311.541 285.303 303.542C294.198 296.423 302.927 289.095 311.404 281.557C318.963 273.014 326.23 264.262 333.33 255.384C341.306 245.375 349.074 235.115 356.925 224.897C358.554 212.083 360.308 199.31 361.728 186.58C362.981 175.231 363.983 163.882 364.693 152.492C364.025 141.101 363.023 129.753 361.728 118.404C360.308 105.673 358.554 92.901 356.925 80.0866C349.032 69.8686 341.306 59.6087 333.33 49.6001C326.23 40.6803 318.922 31.928 311.404 23.427C302.885 15.8473 294.157 8.56067 285.303 1.44158C275.322 -6.55693 265.09 -14.3461 254.9 -22.2189C242.121 -23.8521 229.383 -25.611 216.688 -27.0348C205.412 -28.2911 194.094 -29.338 182.735 -30.0081C171.376 -29.338 160.058 -28.2911 148.74 -27.0348C136.045 -25.611 123.307 -23.8521 110.57 -22.2189C100.38 -14.3042 90.1479 -6.55693 80.1667 1.44158C71.2713 8.56067 62.543 15.8891 54.0653 23.427C46.5063 31.9699 39.2397 40.7222 32.1401 49.6001C24.1635 59.6087 16.3957 69.8686 8.54441 80.0866C6.91568 92.901 5.16166 105.673 3.74175 118.404C2.44712 129.753 1.40306 141.101 0.734863 152.492ZM136.546 171.672C132.203 165.641 128.527 159.192 126.439 152.492C128.569 145.792 132.244 139.343 136.546 133.312C137.715 125.984 139.72 118.823 142.935 112.583C149.158 109.359 156.299 107.39 163.608 106.176C169.622 101.821 176.053 98.1356 182.735 96.0417C189.417 98.1775 195.848 101.863 201.862 106.176C209.17 107.349 216.312 109.359 222.534 112.583C225.75 118.823 227.713 125.984 228.924 133.312C233.267 139.343 236.942 145.792 239.03 152.492C236.901 159.192 233.225 165.641 228.924 171.672C227.755 179 225.75 186.161 222.534 192.401C216.312 195.625 209.17 197.593 201.862 198.808C195.848 203.163 189.417 206.848 182.735 208.942C176.053 206.806 169.622 203.121 163.608 198.808C156.299 197.635 149.158 195.625 142.935 192.401C139.72 186.161 137.715 179 136.546 171.672ZM19.9455 220.123C19.6532 217.318 19.3191 214.554 18.985 211.748C22.6601 204.168 35.4811 203.833 42.5389 202.409C50.4737 200.818 58.325 198.934 66.0511 196.463C80.0414 192.024 93.3636 185.826 105.224 177.116C106.519 179.126 107.813 181.094 109.191 183.02C109.609 185.365 110.068 187.669 110.57 190.014C96.0364 192.275 82.2548 197.3 69.225 204.126C62.0419 207.853 55.1511 212.125 48.4274 216.606C42.4554 220.626 33.1424 229.462 25.2076 226.698C23.4118 224.479 21.6578 222.301 19.9455 220.123ZM19.9455 84.8606C21.6995 82.683 23.4535 80.4635 25.1658 78.2859C33.1006 75.522 42.4136 84.3999 48.3856 88.3782C55.1093 92.8591 62.0419 97.1305 69.1832 100.858C82.2131 107.642 95.9946 112.709 110.528 114.97C110.027 117.273 109.567 119.618 109.15 121.964C107.813 123.89 106.477 125.858 105.182 127.868C93.3218 119.158 79.9997 112.96 66.0093 108.521C58.2833 106.092 50.432 104.166 42.4971 102.575C35.4393 101.151 22.6183 100.816 18.9432 93.2779C19.3191 90.4721 19.6114 87.6663 19.9455 84.8606ZM115.289 -10.7446C118.087 -11.0378 120.843 -11.3728 123.641 -11.7078C131.2 -8.02263 131.534 4.83361 132.912 11.9108C134.499 19.8675 136.379 27.7403 138.843 35.4876C143.27 49.5164 149.45 62.8751 158.137 74.7682C156.132 76.0664 154.169 77.3646 152.248 78.7465C149.91 79.1653 147.613 79.6259 145.274 80.1285C143.019 65.5553 138.007 51.7359 131.2 38.6702C127.483 31.4674 123.224 24.5577 118.755 17.8155C114.746 11.8271 105.934 2.4885 108.69 -5.46813C110.904 -7.26884 113.117 -9.02768 115.289 -10.7446ZM250.181 -10.7446C252.353 -8.9858 254.566 -7.22696 256.738 -5.51001C259.494 2.44662 250.64 11.7852 246.673 17.7736C242.204 24.5158 237.945 31.4674 234.228 38.6284C227.462 51.694 222.409 65.5134 220.154 80.0866C217.857 79.5841 215.518 79.1234 213.18 78.7047C211.258 77.3227 209.296 76.0245 207.291 74.7263C215.978 62.8333 222.158 49.4745 226.585 35.4457C229.007 27.6985 230.929 19.8256 232.515 11.8689C233.935 4.79174 234.27 -8.0645 241.828 -11.7497C244.585 -11.3728 247.383 -11.0796 250.181 -10.7446ZM345.524 84.8606C345.817 87.6663 346.151 90.4302 346.485 93.236C342.81 100.816 329.989 101.151 322.931 102.533C314.996 104.124 307.145 106.008 299.419 108.479C285.428 112.918 272.106 119.116 260.246 127.826C258.951 125.816 257.656 123.848 256.278 121.922C255.861 119.577 255.401 117.273 254.9 114.928C269.433 112.667 283.215 107.642 296.245 100.816C303.428 97.0887 310.319 92.8172 317.042 88.3364C323.014 84.3162 332.327 75.4801 340.262 78.244C342.016 80.4635 343.77 82.683 345.524 84.8606ZM345.524 220.123C343.77 222.301 342.016 224.52 340.304 226.698C332.369 229.462 323.056 220.584 317.084 216.606C310.36 212.125 303.47 207.853 296.286 204.126C283.257 197.342 269.475 192.275 254.942 190.014C255.443 187.711 255.902 185.365 256.32 183.02C257.698 181.094 258.993 179.126 260.287 177.116C272.148 185.826 285.47 192.024 299.46 196.463C307.186 198.892 315.038 200.818 322.973 202.409C330.03 203.833 342.851 204.168 346.527 211.748C346.151 214.512 345.817 217.318 345.524 220.123ZM250.181 315.729C247.383 316.022 244.627 316.357 241.828 316.692C234.27 313.007 233.935 300.15 232.515 293.073C230.929 285.116 229.049 277.244 226.585 269.496C222.158 255.467 215.978 242.109 207.291 230.216C209.296 228.917 211.258 227.619 213.18 226.237C215.518 225.819 217.815 225.358 220.154 224.855C222.409 239.429 227.421 253.248 234.228 266.314C237.945 273.517 242.204 280.426 246.673 287.168C250.682 293.157 259.494 302.495 256.738 310.452C254.524 312.211 252.353 313.97 250.181 315.729ZM115.289 315.729C113.117 313.97 110.904 312.211 108.732 310.494C105.976 302.537 114.829 293.199 118.797 287.21C123.265 280.468 127.525 273.558 131.242 266.355C138.007 253.29 143.061 239.47 145.316 224.897C147.613 225.4 149.951 225.86 152.29 226.279C154.211 227.661 156.174 228.959 158.179 230.258C149.492 242.151 143.311 255.509 138.884 269.538C136.462 277.285 134.541 285.158 132.954 293.115C131.534 300.192 131.2 313.048 123.683 316.734C120.885 316.357 118.087 316.022 115.289 315.729ZM92.1525 152.492C93.5724 155.8 95.0758 159.067 96.7046 162.291C95.1176 169.62 90.2732 175.064 83.9671 179.209C81.0437 170.415 78.2874 161.495 75.9487 152.45C78.2874 143.405 81.0437 134.485 83.9671 125.733C90.2732 129.878 95.1176 135.364 96.7046 142.651C95.0758 145.875 93.5724 149.184 92.1525 152.492ZM118.672 88.2526C117.335 91.6028 116.082 94.9948 114.955 98.4287C108.69 102.491 101.424 102.91 94.0318 101.402C98.1663 93.1103 102.51 84.8606 107.229 76.8202C115.247 72.0881 123.474 67.7329 131.743 63.5871C133.247 70.9993 132.829 78.2859 128.778 84.5674C125.395 85.6981 122.013 86.9125 118.672 88.2526ZM182.735 61.6607C179.436 63.0845 176.178 64.5921 172.962 66.2253C165.654 64.634 160.225 59.7762 156.091 53.4528C164.861 50.5214 173.756 47.7575 182.735 45.4124C191.756 47.7575 200.651 50.5214 209.379 53.4528C205.245 59.7762 199.774 64.634 192.507 66.2253C189.292 64.5921 186.034 63.0845 182.735 61.6607ZM246.756 88.2526C243.415 86.9125 240.033 85.6562 236.608 84.5674C232.557 78.2859 232.14 70.9993 233.643 63.5871C241.912 67.7329 250.139 72.0881 258.158 76.8202C262.877 84.8606 267.22 93.1103 271.354 101.402C263.962 102.91 256.696 102.491 250.432 98.4287C249.346 94.9948 248.135 91.6028 246.756 88.2526ZM273.317 152.492C271.897 149.184 270.394 145.917 268.765 142.693C270.352 135.364 275.197 129.92 281.503 125.774C284.426 134.569 287.182 143.488 289.521 152.492C287.182 161.537 284.426 170.457 281.503 179.251C275.197 175.106 270.352 169.62 268.765 162.333C270.352 159.067 271.897 155.8 273.317 152.492ZM246.756 216.689C248.093 213.339 249.346 209.947 250.432 206.513C256.696 202.451 263.962 202.032 271.354 203.54C267.22 211.832 262.877 220.081 258.158 228.122C250.139 232.854 241.912 237.209 233.643 241.355C232.14 233.943 232.557 226.656 236.608 220.375C240.074 219.286 243.415 218.071 246.756 216.689ZM182.735 243.323C186.034 241.899 189.292 240.392 192.507 238.759C199.816 240.35 205.245 245.208 209.379 251.531C200.609 254.462 191.714 257.226 182.735 259.571C173.714 257.226 164.819 254.462 156.091 251.531C160.225 245.208 165.696 240.35 172.962 238.759C176.136 240.35 179.436 241.899 182.735 243.323ZM118.672 216.689C122.013 218.029 125.395 219.286 128.82 220.375C132.871 226.656 133.288 233.943 131.785 241.355C123.516 237.209 115.289 232.854 107.27 228.122C102.551 220.081 98.208 211.832 94.0735 203.54C101.465 202.032 108.732 202.451 114.996 206.513C116.124 209.989 117.335 213.339 118.672 216.689ZM70.3526 152.492C72.9001 162.501 75.9487 172.384 79.2062 182.057C73.5683 184.988 67.2204 187.124 61.1649 188.799C57.3227 176.948 54.1071 164.804 51.9354 152.492C54.1488 140.18 57.3227 128.036 61.1649 116.185C67.2204 117.86 73.5683 119.995 79.2062 122.927C75.907 132.6 72.8583 142.483 70.3526 152.492ZM103.261 72.8C97.9992 81.6779 93.1965 90.8071 88.6862 99.9782C82.6307 98.0518 76.6587 95.0786 71.1461 91.9378C76.784 80.8404 83.0901 69.9524 90.1897 59.6925C100.421 52.5315 111.238 46.2081 122.347 40.5966C125.437 46.0825 128.402 52.1128 130.365 58.1849C121.219 62.7076 112.115 67.5235 103.261 72.8ZM182.735 39.8009C172.754 42.3554 162.898 45.4124 153.251 48.6788C150.327 43.0255 148.197 36.6601 146.527 30.588C158.346 26.7353 170.457 23.5108 182.735 21.3332C195.013 23.5526 207.124 26.7353 218.943 30.588C217.272 36.6601 215.142 43.0255 212.219 48.6788C202.53 45.3706 192.716 42.3135 182.735 39.8009ZM262.208 72.8C253.355 67.5235 244.251 62.7076 235.105 58.1849C237.026 52.1128 239.991 46.1243 243.123 40.5966C254.19 46.25 265.048 52.5734 275.28 59.6925C282.421 69.9524 288.728 80.7985 294.324 91.9378C288.853 95.0367 282.839 98.01 276.784 99.9782C272.273 90.8071 267.471 81.6779 262.208 72.8ZM295.117 152.492C292.57 142.483 289.521 132.6 286.264 122.927C291.901 119.995 298.249 117.86 304.305 116.185C308.147 128.036 311.363 140.18 313.534 152.492C311.321 164.804 308.147 176.948 304.305 188.799C298.249 187.124 291.901 184.988 286.264 182.057C289.521 172.342 292.611 162.501 295.117 152.492ZM262.208 232.184C267.471 223.306 272.273 214.177 276.784 205.006C282.839 206.932 288.811 209.905 294.324 213.046C288.686 224.144 282.38 235.032 275.28 245.291C265.048 252.452 254.232 258.776 243.123 264.387C240.033 258.901 237.068 252.871 235.105 246.799C244.251 242.276 253.355 237.46 262.208 232.184ZM182.735 265.183C192.716 262.628 202.572 259.571 212.219 256.305C215.142 261.958 217.272 268.324 218.943 274.396C207.124 278.249 195.013 281.473 182.735 283.651C170.457 281.431 158.346 278.249 146.527 274.396C148.197 268.324 150.327 261.958 153.251 256.305C162.898 259.571 172.754 262.67 182.735 265.183ZM103.261 232.184C112.115 237.46 121.219 242.276 130.365 246.799C128.444 252.871 125.479 258.86 122.347 264.387C111.28 258.734 100.421 252.41 90.1897 245.291C83.0483 235.032 76.7422 224.185 71.1461 213.046C76.6169 209.947 82.6307 206.974 88.6862 205.006C93.1965 214.177 97.9992 223.306 103.261 232.184ZM46.381 152.492C48.5944 165.264 51.8519 177.869 55.8611 190.181C53.2718 190.809 50.7661 191.396 48.5109 191.898C45.8799 192.484 43.0818 192.987 40.2002 193.573C35.8987 180.131 32.7248 166.395 30.929 152.492C32.7248 138.589 35.8987 124.853 40.2002 111.411C43.0818 111.955 45.9216 112.458 48.5109 113.086C50.8078 113.588 53.2718 114.174 55.8611 114.803C51.8101 127.114 48.5527 139.719 46.381 152.492ZM86.3058 55.7979C78.8721 66.3928 72.2736 77.6159 66.4269 89.1739C64.13 87.792 62.0001 86.41 59.9955 85.1956C57.7404 83.7718 55.3599 82.1386 52.9377 80.4635C59.3691 67.9004 66.8028 55.9236 75.3641 44.8262C86.4311 36.2832 98.3751 28.7873 110.904 22.3382C112.532 24.7671 114.203 27.1541 115.623 29.4154C116.876 31.3836 118.212 33.5612 119.59 35.8645C108.064 41.7273 96.8716 48.3438 86.3058 55.7979ZM182.735 15.7635C169.997 17.983 157.427 21.2494 145.149 25.2696C144.522 22.6732 143.938 20.1606 143.437 17.8992C142.852 15.261 142.351 12.4552 141.766 9.56572C155.172 5.25238 168.87 2.06973 182.735 0.26902C196.6 2.06973 210.298 5.25238 223.704 9.56572C223.161 12.4552 222.66 15.3029 222.033 17.8992C221.532 20.2025 220.947 22.6732 220.321 25.2696C208.043 21.2075 195.431 17.9411 182.735 15.7635ZM279.164 55.7979C268.598 48.3438 257.406 41.7273 245.879 35.8645C247.258 33.5612 248.636 31.4255 249.847 29.4154C251.267 27.1541 252.895 24.7671 254.566 22.3382C267.095 28.7873 279.039 36.2414 290.106 44.8262C298.625 55.9236 306.101 67.9004 312.532 80.4635C310.11 82.0967 307.729 83.7718 305.474 85.1956C303.511 86.4519 301.34 87.792 299.043 89.1739C293.154 77.6159 286.598 66.3928 279.164 55.7979ZM319.089 152.492C316.875 139.719 313.618 127.114 309.609 114.803C312.198 114.174 314.704 113.588 316.959 113.086C319.59 112.499 322.388 111.997 325.27 111.411C329.571 124.853 332.745 138.589 334.541 152.492C332.745 166.395 329.571 180.131 325.27 193.573C322.388 193.029 319.548 192.526 316.959 191.898C314.662 191.396 312.198 190.809 309.609 190.181C313.618 177.869 316.875 165.223 319.089 152.492ZM279.164 249.186C286.598 238.591 293.196 227.368 299.043 215.81C301.34 217.192 303.47 218.574 305.474 219.788C307.729 221.212 310.11 222.845 312.532 224.52C306.101 237.083 298.667 249.06 290.106 260.158C279.039 268.701 267.095 276.197 254.566 282.646C252.937 280.217 251.267 277.83 249.847 275.568C248.594 273.6 247.258 271.423 245.879 269.119C257.406 263.215 268.598 256.64 279.164 249.186ZM182.735 289.22C195.472 287.001 208.043 283.734 220.321 279.714C220.947 282.311 221.532 284.823 222.033 287.085C222.618 289.723 223.119 292.529 223.704 295.418C210.298 299.732 196.6 302.914 182.735 304.715C168.87 302.914 155.172 299.732 141.766 295.418C142.309 292.529 142.81 289.681 143.437 287.085C143.938 284.781 144.522 282.311 145.149 279.714C157.427 283.734 169.997 287.001 182.735 289.22ZM86.3058 249.186C96.8716 256.64 108.064 263.257 119.59 269.119C118.212 271.423 116.834 273.558 115.623 275.568C114.203 277.83 112.574 280.217 110.904 282.646C98.3751 276.197 86.4311 268.743 75.3641 260.158C66.8446 249.06 59.3691 237.083 52.9377 224.52C55.3599 222.887 57.7404 221.212 59.9955 219.788C61.9584 218.532 64.13 217.192 66.4269 215.81C72.2736 227.368 78.8721 238.591 86.3058 249.186ZM25.3746 152.492C27.1704 166.772 30.3861 180.926 34.7711 194.704C28.3397 196.17 22.1589 198.305 17.9409 202.493C17.7321 200.609 17.5233 198.682 17.3145 196.798C15.6858 182.057 14.4329 167.316 13.6812 152.492C14.3911 137.667 15.6858 122.927 17.2727 108.186C17.4815 106.302 17.6903 104.375 17.8992 102.491C22.1171 106.678 28.298 108.814 34.7294 110.28C30.3861 124.057 27.1286 138.212 25.3746 152.492ZM71.4384 40.8897C62.6266 52.2384 54.9423 64.5502 48.3439 77.4065C42.7477 73.8888 36.901 70.9993 30.929 70.9993C32.0983 69.4917 33.3094 67.9841 34.5205 66.5184C43.75 54.9604 53.2718 43.6117 63.2112 32.6399C74.1529 22.6732 85.4705 13.1671 96.9969 3.87044C98.5004 2.65601 99.962 1.48345 101.465 0.26902C101.465 6.21555 104.347 12.1202 107.855 17.7317C95.0341 24.3483 82.7977 32.0537 71.4384 40.8897ZM182.735 -5.30062C168.494 -3.49991 154.378 -0.275383 140.638 4.1217C139.177 -2.32736 137.047 -8.52515 132.871 -12.7547C134.75 -12.9641 136.671 -13.1735 138.55 -13.3829C153.251 -15.0161 167.951 -16.2724 182.735 -17.0262C197.477 -16.3143 212.219 -15.0161 226.919 -13.3829C228.799 -13.1735 230.72 -12.9641 232.599 -12.7547C228.423 -8.52515 226.293 -2.32736 224.831 4.1217C211.091 -0.275383 196.976 -3.54179 182.735 -5.30062ZM293.99 40.8897C282.672 32.0537 270.394 24.3483 257.573 17.7317C261.081 12.1202 263.962 6.25743 263.962 0.26902C265.466 1.44158 266.969 2.65601 268.431 3.87044C279.957 13.1253 291.275 22.6732 302.217 32.6399C312.156 43.6117 321.636 54.9604 330.907 66.5184C332.118 68.026 333.288 69.4917 334.499 70.9993C328.569 70.9993 322.68 73.8888 317.084 77.4065C310.486 64.5502 302.801 52.2803 293.99 40.8897ZM340.095 152.492C338.299 138.212 335.084 124.057 330.699 110.28C337.13 108.814 343.311 106.678 347.529 102.491C347.738 104.375 347.946 106.302 348.155 108.186C349.784 122.927 351.037 137.667 351.789 152.492C351.079 167.275 349.784 182.057 348.155 196.798C347.946 198.682 347.738 200.609 347.529 202.493C343.311 198.305 337.13 196.17 330.699 194.704C335.084 180.926 338.299 166.772 340.095 152.492ZM293.99 264.052C302.801 252.704 310.486 240.392 317.084 227.536C322.68 231.053 328.527 233.943 334.499 233.943C333.288 235.45 332.118 236.958 330.907 238.424C321.678 249.982 312.156 261.33 302.217 272.302C291.275 282.269 279.957 291.775 268.431 301.072C266.928 302.286 265.466 303.459 263.962 304.673C263.962 298.726 261.081 292.822 257.573 287.21C270.394 280.594 282.672 272.888 293.99 264.052ZM182.735 310.285C196.976 308.484 211.091 305.259 224.831 300.862C226.293 307.311 228.423 313.509 232.599 317.739C230.72 317.948 228.799 318.157 226.919 318.367C212.219 320 197.519 321.256 182.735 322.01C167.993 321.298 153.251 320 138.55 318.367C136.671 318.157 134.75 317.948 132.871 317.739C137.047 313.509 139.177 307.311 140.638 300.862C154.378 305.259 168.494 308.484 182.735 310.285ZM71.4384 264.052C82.756 272.888 95.0341 280.594 107.855 287.21C104.347 292.822 101.465 298.685 101.465 304.673C99.962 303.459 98.4586 302.286 96.9969 301.072C85.4705 291.817 74.1529 282.269 63.2112 272.302C53.2718 261.33 43.7918 249.982 34.5205 238.424C33.3094 236.916 32.1401 235.45 30.929 233.943C36.8592 233.943 42.7477 231.053 48.3439 227.536C54.9423 240.392 62.6266 252.704 71.4384 264.052ZM117.544 152.492C119.549 160.281 123.767 167.903 128.778 174.896C130.198 183.397 132.62 191.773 136.671 198.682C143.604 202.744 151.914 205.173 160.392 206.597C167.408 211.622 175.009 215.81 182.735 217.862C190.503 215.852 198.103 211.622 205.078 206.597C213.555 205.173 221.908 202.744 228.799 198.682C232.85 191.731 235.272 183.397 236.692 174.896C241.703 167.861 245.879 160.239 247.926 152.492C245.921 144.703 241.703 137.081 236.692 130.088C235.272 121.587 232.85 113.211 228.799 106.302C221.866 102.24 213.555 99.8107 205.078 98.3868C198.062 93.3616 190.461 89.1739 182.735 87.1219C174.967 89.132 167.366 93.3616 160.392 98.3868C151.914 99.8107 143.562 102.24 136.671 106.302C132.62 113.253 130.198 121.587 128.778 130.088C123.725 137.081 119.549 144.703 117.544 152.492ZM119.298 178.833C113.284 170.499 108.022 161.705 103.721 152.492C108.022 143.279 113.284 134.485 119.298 126.151C120.927 115.975 123.391 106.05 126.857 96.4605C136.421 92.9847 146.318 90.514 156.466 88.8808C164.777 82.8505 173.547 77.574 182.735 73.2606C191.923 77.574 200.693 82.8505 209.003 88.8808C219.152 90.514 229.049 92.9847 238.613 96.4605C242.079 106.05 244.543 115.975 246.172 126.151C252.186 134.485 257.448 143.279 261.749 152.492C257.448 161.705 252.186 170.499 246.172 178.833C244.543 189.009 242.079 198.934 238.613 208.523C229.049 211.999 219.152 214.47 209.003 216.103C200.693 222.133 191.923 227.41 182.735 231.723C173.547 227.41 164.777 222.133 156.466 216.103C146.318 214.47 136.421 211.999 126.857 208.523C123.391 198.934 120.885 189.009 119.298 178.833Z" fill="white" fill-opacity="0.1"/>
</svg>
